# 3ds Max Wavefront OBJ Exporter v0.97b - (c)2007 guruware
# File Created: 01.04.2016 01:32:39

#
# object box
#

v  -0.1000 0.0250 0.1250
v  -0.1250 0.0000 0.1250
v  0.1250 -0.0000 0.1250
v  0.1000 0.0250 0.1250
v  0.1000 0.2250 0.1250
v  0.1250 0.2500 0.1250
v  -0.1250 0.2500 0.1250
v  -0.1000 0.2250 0.1250
v  -0.1000 0.0250 0.1050
v  0.1000 0.0250 0.1050
v  0.1000 0.2250 0.1050
v  -0.1000 0.2250 0.1050
v  0.1136 0.0326 0.1151
v  -0.0924 0.2386 0.1151
v  -0.1136 0.2174 0.1151
v  0.0924 0.0114 0.1151
v  -0.0924 0.2386 0.1050
v  0.1136 0.0326 0.1050
v  0.0924 0.0114 0.1050
v  -0.1136 0.2174 0.1050
v  0.1250 0.0250 0.1000
v  0.1250 0.0000 0.1250
v  0.1250 -0.0000 -0.1250
v  0.1250 0.0250 -0.1000
v  0.1250 0.2250 -0.1000
v  0.1250 0.2500 -0.1250
v  0.1250 0.2250 0.1000
v  0.1050 0.0250 0.1000
v  0.1050 0.0250 -0.1000
v  0.1050 0.2250 -0.1000
v  0.1050 0.2250 0.1000
v  0.1151 0.0326 -0.1136
v  0.1151 0.2386 0.0924
v  0.1151 0.2174 0.1136
v  0.1151 0.0114 -0.0924
v  0.1050 0.2386 0.0924
v  0.1050 0.0326 -0.1136
v  0.1050 0.0114 -0.0924
v  0.1050 0.2174 0.1136
v  0.1000 0.0250 -0.1250
v  0.1250 0.0000 -0.1250
v  -0.1250 -0.0000 -0.1250
v  -0.1000 0.0250 -0.1250
v  -0.1000 0.2250 -0.1250
v  -0.1250 0.2500 -0.1250
v  0.1000 0.2250 -0.1250
v  0.1000 0.0250 -0.1050
v  -0.1000 0.0250 -0.1050
v  -0.1000 0.2250 -0.1050
v  0.1000 0.2250 -0.1050
v  -0.1136 0.0326 -0.1151
v  0.0924 0.2386 -0.1151
v  0.1136 0.2174 -0.1151
v  -0.0924 0.0114 -0.1151
v  0.0924 0.2386 -0.1050
v  -0.1136 0.0326 -0.1050
v  -0.0924 0.0114 -0.1050
v  0.1136 0.2174 -0.1050
v  -0.1250 0.0250 -0.1000
v  -0.1250 0.0000 -0.1250
v  -0.1250 -0.0000 0.1250
v  -0.1250 0.0250 0.1000
v  -0.1250 0.2250 0.1000
v  -0.1250 0.2250 -0.1000
v  -0.1050 0.0250 -0.1000
v  -0.1050 0.0250 0.1000
v  -0.1050 0.2250 0.1000
v  -0.1050 0.2250 -0.1000
v  -0.1151 0.0326 0.1136
v  -0.1151 0.2386 -0.0924
v  -0.1151 0.2174 -0.1136
v  -0.1151 0.0114 0.0924
v  -0.1050 0.2386 -0.0924
v  -0.1050 0.0326 0.1136
v  -0.1050 0.0114 0.0924
v  -0.1050 0.2174 -0.1136
v  -0.1000 0.2500 -0.1000
v  -0.1000 0.2500 0.1000
v  0.1000 0.2500 0.1000
v  0.1000 0.2500 -0.1000
v  -0.1000 0.2300 -0.1000
v  -0.1000 0.2300 0.1000
v  0.1000 0.2300 0.1000
v  0.1000 0.2300 -0.1000
v  -0.0924 0.2401 0.1136
v  0.1136 0.2401 -0.0924
v  0.0924 0.2401 -0.1136
v  -0.1136 0.2401 0.0924
v  0.1136 0.2300 -0.0924
v  -0.0924 0.2300 0.1136
v  -0.1136 0.2300 0.0924
v  0.0924 0.2300 -0.1136
v  0.1000 -0.0000 -0.1000
v  0.1000 -0.0000 0.1000
v  -0.1000 -0.0000 0.1000
v  -0.1000 -0.0000 -0.1000
v  0.1000 0.0200 -0.1000
v  0.1000 0.0200 0.1000
v  -0.1000 0.0200 0.1000
v  -0.1000 0.0200 -0.1000
v  0.0924 0.0099 0.1136
v  -0.1136 0.0099 -0.0924
v  -0.0924 0.0099 -0.1136
v  0.1136 0.0099 0.0924
v  -0.1136 0.0200 -0.0924
v  0.0924 0.0200 0.1136
v  0.1136 0.0200 0.0924
v  -0.0924 0.0200 -0.1136
# 108 vertices

vn 0.3015 0.3015 0.9045
vn -0.0000 -0.0000 1.0000
vn 0.0000 -0.0000 1.0000
vn -0.3015 0.3015 0.9045
vn -0.3015 -0.3015 0.9045
vn 0.0000 0.0000 1.0000
vn 0.3015 -0.3015 0.9045
vn 0.5774 0.5774 0.5774
vn -0.5774 0.5774 0.5774
vn -0.5774 -0.5774 0.5774
vn 0.5774 -0.5774 0.5774
vn 0.5000 0.5000 0.7071
vn -0.5000 -0.5000 0.7071
vn 0.7071 0.7071 -0.0000
vn -0.7071 -0.7071 0.0000
vn 0.9045 0.3015 -0.3015
vn 1.0000 -0.0000 0.0000
vn 1.0000 -0.0000 -0.0000
vn 0.9045 0.3015 0.3015
vn 0.9045 -0.3015 0.3015
vn 1.0000 0.0000 -0.0000
vn 0.9045 -0.3015 -0.3015
vn 0.5774 0.5774 -0.5774
vn 0.5774 -0.5774 -0.5774
vn 0.7071 0.5000 -0.5000
vn 0.7071 -0.5000 0.5000
vn -0.0000 0.7071 -0.7071
vn 0.0000 -0.7071 0.7071
vn -0.3015 0.3015 -0.9045
vn 0.0000 -0.0000 -1.0000
vn -0.0000 -0.0000 -1.0000
vn 0.3015 0.3015 -0.9045
vn 0.3015 -0.3015 -0.9045
vn -0.0000 0.0000 -1.0000
vn -0.3015 -0.3015 -0.9045
vn -0.5774 0.5774 -0.5774
vn -0.5774 -0.5774 -0.5774
vn -0.5000 0.5000 -0.7071
vn 0.5000 -0.5000 -0.7071
vn -0.7071 0.7071 0.0000
vn 0.7071 -0.7071 -0.0000
vn -0.9045 0.3015 0.3015
vn -1.0000 -0.0000 -0.0000
vn -1.0000 -0.0000 0.0000
vn -0.9045 0.3015 -0.3015
vn -0.9045 -0.3015 -0.3015
vn -1.0000 0.0000 0.0000
vn -0.9045 -0.3015 0.3015
vn -0.7071 0.5000 0.5000
vn -0.7071 -0.5000 -0.5000
vn 0.0000 0.7071 0.7071
vn -0.0000 -0.7071 -0.7071
vn 0.3015 0.9045 0.3015
vn -0.0000 1.0000 -0.0000
vn -0.0000 1.0000 0.0000
vn 0.3015 0.9045 -0.3015
vn -0.3015 0.9045 -0.3015
vn 0.0000 1.0000 0.0000
vn -0.3015 0.9045 0.3015
vn 0.5000 0.7071 0.5000
vn -0.5000 0.7071 -0.5000
vn 0.7071 0.0000 0.7071
vn -0.7071 0.0000 -0.7071
vn -0.3015 -0.9045 0.3015
vn 0.0000 -1.0000 -0.0000
vn 0.0000 -1.0000 0.0000
vn -0.3015 -0.9045 -0.3015
vn 0.3015 -0.9045 -0.3015
vn -0.0000 -1.0000 0.0000
vn 0.3015 -0.9045 0.3015
vn -0.5000 -0.7071 0.5000
vn 0.5000 -0.7071 -0.5000
vn -0.7071 0.0000 0.7071
vn 0.7071 0.0000 -0.7071
# 74 vertex normals

vt 0.0219 0.0209 0.0000
vt 0.7984 0.0209 0.0000
vt 0.7305 0.0888 0.0000
vt 0.0898 0.0888 0.0000
vt 0.7984 0.7974 0.0000
vt 0.0219 0.7974 0.0000
vt 0.0898 0.7295 0.0000
vt 0.7305 0.7295 0.0000
vt 0.7029 0.1163 0.0000
vt 0.1173 0.1163 0.0000
vt 0.1173 0.7019 0.0000
vt 0.7029 0.7019 0.0000
vt 0.0247 0.8510 0.0000
vt 0.0247 0.9430 0.0000
vt 0.9182 0.9430 0.0000
vt 0.9182 0.8510 0.0000
vt 0.9182 0.8198 0.0000
vt 0.0247 0.8198 0.0000
vt 0.0247 0.9741 0.0000
vt 0.9182 0.9741 0.0000
vt 0.0219 0.0209 0.0000
vt 0.7984 0.0209 0.0000
vt 0.7305 0.0888 0.0000
vt 0.0898 0.0888 0.0000
vt 0.7984 0.7974 0.0000
vt 0.0219 0.7974 0.0000
vt 0.0898 0.7295 0.0000
vt 0.7305 0.7295 0.0000
vt 0.7029 0.1163 0.0000
vt 0.1173 0.1163 0.0000
vt 0.1173 0.7019 0.0000
vt 0.7029 0.7019 0.0000
vt 0.0247 0.8510 0.0000
vt 0.0247 0.9430 0.0000
vt 0.9182 0.9430 0.0000
vt 0.9182 0.8510 0.0000
vt 0.9182 0.8198 0.0000
vt 0.0247 0.8198 0.0000
vt 0.0247 0.9741 0.0000
vt 0.9182 0.9741 0.0000
vt 0.0219 0.0209 0.0000
vt 0.7984 0.0209 0.0000
vt 0.7305 0.0888 0.0000
vt 0.0898 0.0888 0.0000
vt 0.7984 0.7974 0.0000
vt 0.0219 0.7974 0.0000
vt 0.0898 0.7295 0.0000
vt 0.7305 0.7295 0.0000
vt 0.7029 0.1163 0.0000
vt 0.1173 0.1163 0.0000
vt 0.1173 0.7019 0.0000
vt 0.7029 0.7019 0.0000
vt 0.0247 0.8510 0.0000
vt 0.0247 0.9430 0.0000
vt 0.9182 0.9430 0.0000
vt 0.9182 0.8510 0.0000
vt 0.9182 0.8198 0.0000
vt 0.0247 0.8198 0.0000
vt 0.0247 0.9741 0.0000
vt 0.9182 0.9741 0.0000
vt 0.0219 0.0209 0.0000
vt 0.7984 0.0209 0.0000
vt 0.7305 0.0888 0.0000
vt 0.0898 0.0888 0.0000
vt 0.7984 0.7974 0.0000
vt 0.0219 0.7974 0.0000
vt 0.0898 0.7295 0.0000
vt 0.7305 0.7295 0.0000
vt 0.7029 0.1163 0.0000
vt 0.1173 0.1163 0.0000
vt 0.1173 0.7019 0.0000
vt 0.7029 0.7019 0.0000
vt 0.0247 0.8510 0.0000
vt 0.0247 0.9430 0.0000
vt 0.9182 0.9430 0.0000
vt 0.9182 0.8510 0.0000
vt 0.9182 0.8198 0.0000
vt 0.0247 0.8198 0.0000
vt 0.0247 0.9741 0.0000
vt 0.9182 0.9741 0.0000
vt 0.0219 0.0209 0.0000
vt 0.7984 0.0209 0.0000
vt 0.7305 0.0888 0.0000
vt 0.0898 0.0888 0.0000
vt 0.7984 0.7974 0.0000
vt 0.0219 0.7974 0.0000
vt 0.0898 0.7295 0.0000
vt 0.7305 0.7295 0.0000
vt 0.7029 0.1163 0.0000
vt 0.1173 0.1163 0.0000
vt 0.1173 0.7019 0.0000
vt 0.7029 0.7019 0.0000
vt 0.0247 0.8510 0.0000
vt 0.0247 0.9430 0.0000
vt 0.9182 0.9430 0.0000
vt 0.9182 0.8510 0.0000
vt 0.9182 0.8198 0.0000
vt 0.0247 0.8198 0.0000
vt 0.0247 0.9741 0.0000
vt 0.9182 0.9741 0.0000
vt 0.0219 0.0209 0.0000
vt 0.7984 0.0209 0.0000
vt 0.7305 0.0888 0.0000
vt 0.0898 0.0888 0.0000
vt 0.7984 0.7974 0.0000
vt 0.0219 0.7974 0.0000
vt 0.0898 0.7295 0.0000
vt 0.7305 0.7295 0.0000
vt 0.7029 0.1163 0.0000
vt 0.1173 0.1163 0.0000
vt 0.1173 0.7019 0.0000
vt 0.7029 0.7019 0.0000
vt 0.0247 0.8510 0.0000
vt 0.0247 0.9430 0.0000
vt 0.9182 0.9430 0.0000
vt 0.9182 0.8510 0.0000
vt 0.9182 0.8198 0.0000
vt 0.0247 0.8198 0.0000
vt 0.0247 0.9741 0.0000
vt 0.9182 0.9741 0.0000
# 120 texture coords

g box
s 1
f 1/3/1 2/2/2 3/1/3 4/4/4 
f 5/7/5 6/6/6 7/5/2 8/8/7 
f 9/9/8 1/3/1 4/4/4 10/10/9 
f 11/11/10 5/7/5 8/8/7 12/12/11 
f 11/11/10 12/12/11 9/9/8 10/10/9 
f 2/2/2 1/3/1 8/8/7 7/5/2 
f 6/6/6 5/7/5 4/4/4 3/1/3 
f 1/3/1 9/9/8 12/12/11 8/8/7 
f 5/7/5 11/11/10 10/10/9 4/4/4 
f 13/16/12 14/13/12 15/14/13 16/15/13 
f 17/18/14 14/13/12 13/16/12 18/17/14 
f 19/20/15 16/15/13 15/14/13 20/19/15 
f 21/23/16 22/22/17 23/21/18 24/24/19 
f 25/27/20 26/26/21 6/25/17 27/28/22 
f 28/29/23 21/23/16 24/24/19 29/30/8 
f 30/31/11 25/27/20 27/28/22 31/32/24 
f 30/31/11 31/32/24 28/29/23 29/30/8 
f 22/22/17 21/23/16 27/28/22 6/25/17 
f 26/26/21 25/27/20 24/24/19 23/21/18 
f 21/23/16 28/29/23 31/32/24 27/28/22 
f 25/27/20 30/31/11 29/30/8 24/24/19 
f 32/36/25 33/33/25 34/34/26 35/35/26 
f 36/38/27 33/33/25 32/36/25 37/37/27 
f 38/40/28 35/35/26 34/34/26 39/39/28 
f 40/43/29 41/42/30 42/41/31 43/44/32 
f 44/47/33 45/46/34 26/45/30 46/48/35 
f 47/49/36 40/43/29 43/44/32 48/50/23 
f 49/51/24 44/47/33 46/48/35 50/52/37 
f 49/51/24 50/52/37 47/49/36 48/50/23 
f 41/42/30 40/43/29 46/48/35 26/45/30 
f 45/46/34 44/47/33 43/44/32 42/41/31 
f 40/43/29 47/49/36 50/52/37 46/48/35 
f 44/47/33 49/51/24 48/50/23 43/44/32 
f 51/56/38 52/53/38 53/54/39 54/55/39 
f 55/58/40 52/53/38 51/56/38 56/57/40 
f 57/60/41 54/55/39 53/54/39 58/59/41 
f 59/63/42 60/62/43 61/61/44 62/64/45 
f 63/67/46 7/66/47 45/65/47 64/68/48 
f 65/69/9 59/63/42 62/64/45 66/70/36 
f 67/71/37 63/67/46 64/68/48 68/72/10 
f 67/71/37 68/72/10 65/69/9 66/70/36 
f 60/62/43 59/63/42 64/68/48 45/65/47 
f 7/66/47 63/67/46 62/64/45 61/61/44 
f 59/63/42 65/69/9 68/72/10 64/68/48 
f 63/67/46 67/71/37 66/70/36 62/64/45 
f 69/76/49 70/73/49 71/74/50 72/75/50 
f 73/78/51 70/73/49 69/76/49 74/77/51 
f 75/80/52 72/75/50 71/74/50 76/79/52 
f 77/83/53 45/82/54 7/81/55 78/84/56 
f 79/87/57 6/86/58 26/85/54 80/88/59 
f 81/89/8 77/83/53 78/84/56 82/90/23 
f 83/91/36 79/87/57 80/88/59 84/92/9 
f 83/91/36 84/92/9 81/89/8 82/90/23 
f 45/82/54 77/83/53 80/88/59 26/85/54 
f 6/86/58 79/87/57 78/84/56 7/81/55 
f 77/83/53 81/89/8 84/92/9 80/88/59 
f 79/87/57 83/91/36 82/90/23 78/84/56 
f 85/96/60 86/93/60 87/94/61 88/95/61 
f 89/98/62 86/93/60 85/96/60 90/97/62 
f 91/100/63 88/95/61 87/94/61 92/99/63 
f 93/103/64 41/102/65 3/101/66 94/104/67 
f 95/107/68 61/106/69 42/105/65 96/108/70 
f 97/109/10 93/103/64 94/104/67 98/110/37 
f 99/111/24 95/107/68 96/108/70 100/112/11 
f 99/111/24 100/112/11 97/109/10 98/110/37 
f 41/102/65 93/103/64 96/108/70 42/105/65 
f 61/106/69 95/107/68 94/104/67 3/101/66 
f 93/103/64 97/109/10 100/112/11 96/108/70 
f 95/107/68 99/111/24 98/110/37 94/104/67 
f 101/116/71 102/113/71 103/114/72 104/115/72 
f 105/118/73 102/113/71 101/116/71 106/117/73 
f 107/120/74 104/115/72 103/114/72 108/119/74 
# 72 polygons

